<svg width="318" height="124" viewBox="0 0 318 124" fill="none" xmlns="http://www.w3.org/2000/svg">
<path d="M0 35H70C86.5685 35 100 48.4315 100 65V70C100 86.5685 86.5685 100 70 100H0V35Z" fill="white"/>
<path d="M0 0H70C86.5685 0 100 13.4315 100 30V35C100 51.5685 86.5685 65 70 65H0V0Z" fill="#114D7B"/>
<path d="M0 35H70C86.5685 35 100 48.4315 100 65V70C100 86.5685 86.5685 100 70 100H0V35Z" fill="#72C0F0" fill-opacity="0.67"/>
<path d="M129.1 47C137.433 47 143.367 48.6 146.9 51.8C150.5 54.9333 152.3 60.1 152.3 67.3V86C152.3 90.8 152.8 95.4667 153.8 100H138.6C138.067 97 137.733 94.5667 137.6 92.7H137.4C135.6 95.2333 133.167 97.2667 130.1 98.8C127.1 100.267 123.933 101 120.6 101C115.6 101 111.6 99.6 108.6 96.8C105.6 94 104.1 90.1667 104.1 85.3C104.1 79.5667 106.533 74.9667 111.4 71.5C116.333 68.0333 123.4 66.3 132.6 66.3H136.3V66.1C136.3 63.1667 135.7 61.1333 134.5 60C133.367 58.8667 131.333 58.3 128.4 58.3C121.6 58.3 115.1 59.8 108.9 62.8L106.8 51.5C113.533 48.5 120.967 47 129.1 47ZM118.7 83.8C118.7 85.6 119.233 87 120.3 88C121.433 89 122.933 89.5 124.8 89.5C128.133 89.5 130.867 88.4667 133 86.4C135.2 84.3333 136.3 81.7 136.3 78.5V76.1H132.6C128.067 76.1 124.6 76.8 122.2 78.2C119.867 79.6 118.7 81.4667 118.7 83.8ZM165.975 48H180.775L181.175 55.2H181.375C183.308 52.6667 185.675 50.6667 188.475 49.2C191.342 47.7333 194.275 47 197.275 47C203.542 47 208.108 48.8333 210.975 52.5C213.842 56.1667 215.275 62.4333 215.275 71.3V100H199.475V73C199.475 67.6 198.908 64 197.775 62.2C196.642 60.3333 194.642 59.4 191.775 59.4C189.308 59.4 187.042 60.7333 184.975 63.4C182.975 66.0667 181.975 69.1667 181.975 72.7V100H165.975V48ZM244.687 78H244.487V100H228.487V25H244.487V67.7H244.687L261.487 48H279.987L257.687 72.8L280.487 100H261.987L244.687 78Z" fill="#114D7B"/>
</svg>
