<svg xmlns="http://www.w3.org/2000/svg" xmlns:xlink="http://www.w3.org/1999/xlink" version="1.1" width="256" height="256" viewBox="0 0 256 256" xml:space="preserve">

<defs>
</defs>
<g style="stroke: none; stroke-width: 0; stroke-dasharray: none; stroke-linecap: butt; stroke-linejoin: miter; stroke-miterlimit: 10; fill: none; fill-rule: nonzero; opacity: 1;" transform="translate(1.4065934065934016 1.4065934065934016) scale(2.81 2.81)" >
	<circle cx="45" cy="45" r="45" style="stroke: none; stroke-width: 1; stroke-dasharray: none; stroke-linecap: butt; stroke-linejoin: miter; stroke-miterlimit: 10; fill: rgb(59,55,55); fill-rule: nonzero; opacity: 1;" transform="  matrix(1 0 0 1 0 0) "/>
	<path d="M 19.843 63.63 v -4.057 c 0 -1.552 -0.945 -2.568 -2.568 -2.568 c -0.811 0 -1.694 0.268 -2.3 1.15 c -0.473 -0.74 -1.15 -1.15 -2.166 -1.15 c -0.677 0 -1.355 0.205 -1.891 0.945 v -0.811 H 9.5 v 6.491 h 1.418 v -3.584 c 0 -1.15 0.607 -1.694 1.552 -1.694 s 1.418 0.607 1.418 1.694 v 3.584 h 1.418 v -3.584 c 0 -1.15 0.677 -1.694 1.552 -1.694 c 0.945 0 1.418 0.607 1.418 1.694 v 3.584 L 19.843 63.63 L 19.843 63.63 z M 40.876 57.139 h -2.3 v -1.962 h -1.418 v 1.962 h -1.284 v 1.284 h 1.284 v 2.978 c 0 1.489 0.607 2.363 2.229 2.363 c 0.607 0 1.284 -0.205 1.757 -0.473 l -0.41 -1.221 c -0.41 0.268 -0.882 0.339 -1.221 0.339 c -0.677 0 -0.945 -0.41 -0.945 -1.079 v -2.907 h 2.3 v -1.284 H 40.876 z M 52.913 56.997 c -0.811 0 -1.355 0.41 -1.694 0.945 v -0.811 h -1.418 v 6.491 h 1.418 v -3.655 c 0 -1.079 0.473 -1.694 1.355 -1.694 c 0.268 0 0.607 0.071 0.882 0.134 l 0.41 -1.355 C 53.583 56.997 53.181 56.997 52.913 56.997 L 52.913 56.997 z M 34.724 57.675 c -0.677 -0.473 -1.623 -0.677 -2.639 -0.677 c -1.623 0 -2.702 0.811 -2.702 2.095 c 0 1.079 0.811 1.694 2.229 1.891 l 0.677 0.071 c 0.74 0.134 1.15 0.339 1.15 0.677 c 0 0.473 -0.544 0.811 -1.489 0.811 c -0.945 0 -1.694 -0.339 -2.166 -0.677 l -0.677 1.079 c 0.74 0.544 1.757 0.811 2.773 0.811 c 1.891 0 2.978 -0.882 2.978 -2.095 c 0 -1.15 -0.882 -1.757 -2.229 -1.962 l -0.677 -0.071 c -0.607 -0.071 -1.079 -0.205 -1.079 -0.607 c 0 -0.473 0.473 -0.74 1.221 -0.74 c 0.811 0 1.623 0.339 2.032 0.544 L 34.724 57.675 L 34.724 57.675 z M 72.449 56.997 c -0.811 0 -1.355 0.41 -1.694 0.945 v -0.811 h -1.418 v 6.491 h 1.418 v -3.655 c 0 -1.079 0.473 -1.694 1.355 -1.694 c 0.268 0 0.607 0.071 0.882 0.134 l 0.41 -1.339 C 73.127 56.997 72.725 56.997 72.449 56.997 L 72.449 56.997 z M 54.331 60.385 c 0 1.962 1.355 3.379 3.45 3.379 c 0.945 0 1.623 -0.205 2.3 -0.74 l -0.677 -1.15 c -0.544 0.41 -1.079 0.607 -1.694 0.607 c -1.15 0 -1.962 -0.811 -1.962 -2.095 c 0 -1.221 0.811 -2.032 1.962 -2.095 c 0.607 0 1.15 0.205 1.694 0.607 l 0.677 -1.15 c -0.677 -0.544 -1.355 -0.74 -2.3 -0.74 C 55.686 56.997 54.331 58.423 54.331 60.385 L 54.331 60.385 L 54.331 60.385 z M 67.447 60.385 v -3.246 h -1.418 v 0.811 c -0.473 -0.607 -1.15 -0.945 -2.032 -0.945 c -1.828 0 -3.246 1.418 -3.246 3.379 s 1.418 3.379 3.246 3.379 c 0.945 0 1.623 -0.339 2.032 -0.945 v 0.811 h 1.418 V 60.385 L 67.447 60.385 z M 62.24 60.385 c 0 -1.15 0.74 -2.095 1.961 -2.095 c 1.15 0 1.962 0.882 1.962 2.095 c 0 1.15 -0.811 2.095 -1.962 2.095 C 62.988 62.409 62.24 61.527 62.24 60.385 L 62.24 60.385 z M 45.272 56.997 c -1.891 0 -3.246 1.355 -3.246 3.379 c 0 2.032 1.355 3.379 3.316 3.379 c 0.945 0 1.891 -0.268 2.639 -0.882 l -0.677 -1.016 c -0.544 0.41 -1.221 0.677 -1.891 0.677 c -0.882 0 -1.757 -0.41 -1.961 -1.552 h 4.797 c 0 -0.205 0 -0.339 0 -0.544 C 48.312 58.352 47.091 56.997 45.272 56.997 L 45.272 56.997 L 45.272 56.997 z M 45.272 58.218 c 0.882 0 1.489 0.544 1.623 1.552 h -3.379 C 43.649 58.896 44.256 58.218 45.272 58.218 L 45.272 58.218 z M 80.5 60.385 v -5.814 h -1.418 v 3.379 c -0.473 -0.607 -1.15 -0.945 -2.032 -0.945 c -1.828 0 -3.246 1.418 -3.246 3.379 s 1.418 3.379 3.246 3.379 c 0.945 0 1.623 -0.339 2.032 -0.945 v 0.811 H 80.5 V 60.385 L 80.5 60.385 z M 75.293 60.385 c 0 -1.15 0.74 -2.095 1.962 -2.095 c 1.15 0 1.962 0.882 1.962 2.095 c 0 1.15 -0.811 2.095 -1.962 2.095 C 76.033 62.409 75.293 61.527 75.293 60.385 L 75.293 60.385 z M 27.823 60.385 v -3.246 h -1.418 v 0.811 c -0.473 -0.607 -1.15 -0.945 -2.032 -0.945 c -1.828 0 -3.246 1.418 -3.246 3.379 s 1.418 3.379 3.246 3.379 c 0.945 0 1.623 -0.339 2.032 -0.945 v 0.811 h 1.418 V 60.385 L 27.823 60.385 z M 22.553 60.385 c 0 -1.15 0.74 -2.095 1.962 -2.095 c 1.15 0 1.962 0.882 1.962 2.095 c 0 1.15 -0.811 2.095 -1.962 2.095 C 23.294 62.409 22.553 61.527 22.553 60.385 z" style="stroke: none; stroke-width: 1; stroke-dasharray: none; stroke-linecap: butt; stroke-linejoin: miter; stroke-miterlimit: 10; fill: rgb(212,212,212); fill-rule: nonzero; opacity: 1;" transform=" matrix(1 0 0 1 0 0) " stroke-linecap="round" />
	<rect x="38.55" y="25.35" rx="0" ry="0" width="12.72" height="22.86" style="stroke: none; stroke-width: 1; stroke-dasharray: none; stroke-linecap: butt; stroke-linejoin: miter; stroke-miterlimit: 10; fill: rgb(255,90,0); fill-rule: nonzero; opacity: 1;" transform=" matrix(1 0 0 1 0 0) "/>
	<path d="M 39.399 36.777 c 0 -4.645 2.184 -8.767 5.534 -11.43 c -2.466 -1.939 -5.576 -3.111 -8.969 -3.111 c -8.038 0 -14.541 6.503 -14.541 14.541 s 6.503 14.541 14.541 14.541 c 3.393 0 6.503 -1.172 8.969 -3.111 C 41.578 45.581 39.399 41.421 39.399 36.777 z" style="stroke: none; stroke-width: 1; stroke-dasharray: none; stroke-linecap: butt; stroke-linejoin: miter; stroke-miterlimit: 10; fill: rgb(235,0,27); fill-rule: nonzero; opacity: 1;" transform=" matrix(1 0 0 1 0 0) " stroke-linecap="round" />
	<path d="M 68.443 36.777 c 0 8.038 -6.503 14.541 -14.541 14.541 c -3.393 0 -6.503 -1.172 -8.969 -3.111 c 3.393 -2.668 5.534 -6.786 5.534 -11.43 s -2.184 -8.767 -5.534 -11.43 c 2.461 -1.939 5.572 -3.111 8.965 -3.111 C 61.94 22.236 68.443 28.782 68.443 36.777 z" style="stroke: none; stroke-width: 1; stroke-dasharray: none; stroke-linecap: butt; stroke-linejoin: miter; stroke-miterlimit: 10; fill: rgb(247,158,27); fill-rule: nonzero; opacity: 1;" transform=" matrix(1 0 0 1 0 0) " stroke-linecap="round" />
</g>
</svg>