<svg xmlns="http://www.w3.org/2000/svg" xmlns:xlink="http://www.w3.org/1999/xlink" version="1.1" width="256" height="256" viewBox="0 0 256 256" xml:space="preserve">

<defs>
</defs>
<g style="stroke: none; stroke-width: 0; stroke-dasharray: none; stroke-linecap: butt; stroke-linejoin: miter; stroke-miterlimit: 10; fill: none; fill-rule: nonzero; opacity: 1;" transform="translate(1.4065934065934016 1.4065934065934016) scale(2.81 2.81)" >
	<path d="M 0 45 c 0 9.925 3.22 19.094 8.663 26.535 h 72.674 C 86.78 64.094 90 54.925 90 45 s -3.22 -19.094 -8.663 -26.535 H 8.663 C 3.22 25.906 0 35.075 0 45 z" style="stroke: none; stroke-width: 1; stroke-dasharray: none; stroke-linecap: butt; stroke-linejoin: miter; stroke-miterlimit: 10; fill: rgb(240,240,240); fill-rule: nonzero; opacity: 1;" transform=" matrix(1 0 0 1 0 0) " stroke-linecap="round" />
	<path d="M 9.259 34.213 c 0.96 -0.494 2.058 -0.295 3.089 -0.314 c 2.362 0.062 4.728 -0.057 7.09 0.048 c 1.064 -0.005 1.977 0.879 2.124 1.91 c 0.741 3.592 1.421 7.199 2.148 10.801 c -1.202 -4.22 -4.376 -7.665 -8.107 -9.855 C 13.631 35.619 11.43 34.93 9.259 34.213 z" style="stroke: none; stroke-width: 1; stroke-dasharray: none; stroke-linecap: butt; stroke-linejoin: miter; stroke-miterlimit: 10; fill: rgb(244,169,41); fill-rule: nonzero; opacity: 1;" transform=" matrix(1 0 0 1 0 0) " stroke-linecap="round" />
	<path d="M 29.806 33.909 c 2.048 0.024 4.091 0.014 6.135 0 c -3.108 7.427 -6.006 14.94 -9.181 22.339 c -1.996 -0.062 -3.992 -0.033 -5.987 -0.033 c -1.768 -6.458 -3.417 -12.949 -5.17 -19.411 c 3.73 2.191 6.904 5.636 8.107 9.855 c 0.181 0.817 0.309 1.654 0.466 2.48 C 26.038 44.059 27.924 38.984 29.806 33.909 z" style="stroke: none; stroke-width: 1; stroke-dasharray: none; stroke-linecap: butt; stroke-linejoin: miter; stroke-miterlimit: 10; fill: rgb(27,77,162); fill-rule: nonzero; opacity: 1;" transform=" matrix(1 0 0 1 0 0) " stroke-linecap="round" />
	<path d="M 38.236 33.899 c 1.925 0.014 3.849 0.014 5.774 0 c -1.183 7.441 -2.428 14.873 -3.583 22.32 c -1.915 0.005 -3.83 0.005 -5.75 0 C 35.779 48.768 37.076 41.345 38.236 33.899 z" style="stroke: none; stroke-width: 1; stroke-dasharray: none; stroke-linecap: butt; stroke-linejoin: miter; stroke-miterlimit: 10; fill: rgb(27,77,162); fill-rule: nonzero; opacity: 1;" transform=" matrix(1 0 0 1 0 0) " stroke-linecap="round" />
	<path d="M 49.483 35.301 c 3.45 -2.267 7.959 -2.2 11.775 -0.946 c -0.176 1.649 -0.451 3.284 -0.737 4.913 c -2.029 -0.974 -4.395 -1.407 -6.6 -0.841 c -1.041 0.247 -2.067 1.54 -1.202 2.509 c 1.777 1.82 4.576 2.233 6.249 4.215 c 1.939 1.896 1.867 5.089 0.546 7.308 c -1.397 2.343 -4.087 3.569 -6.705 3.92 c -2.96 0.309 -6.044 0.124 -8.819 -1.022 c 0.295 -1.663 0.542 -3.336 0.841 -4.999 c 2.4 1.24 5.184 1.863 7.86 1.269 c 0.908 -0.304 1.844 -1.05 1.763 -2.115 c -0.299 -1.269 -1.625 -1.81 -2.656 -2.385 c -2.001 -0.984 -4.153 -2.191 -5.051 -4.353 C 45.63 40.043 47.107 36.845 49.483 35.301 z" style="stroke: none; stroke-width: 1; stroke-dasharray: none; stroke-linecap: butt; stroke-linejoin: miter; stroke-miterlimit: 10; fill: rgb(27,77,162); fill-rule: nonzero; opacity: 1;" transform=" matrix(1 0 0 1 0 0) " stroke-linecap="round" />
	<path d="M 76.07 33.928 c -1.768 0.033 -3.545 -0.071 -5.313 0.052 c -1.202 0.062 -1.963 1.178 -2.347 2.205 c -2.78 6.691 -5.593 13.367 -8.378 20.053 c 2.015 -0.005 4.03 -0.005 6.044 -0.005 c 0.423 -1.117 0.832 -2.243 1.226 -3.369 c 2.461 0.014 4.923 0.01 7.389 0.01 c 0.228 1.126 0.466 2.248 0.718 3.364 c 1.777 -0.005 3.554 -0.005 5.332 -0.01 C 79.183 48.796 77.652 41.36 76.07 33.928 z M 68.98 48.273 c 1.074 -2.761 1.953 -5.602 3.155 -8.311 c 0.356 2.804 1.055 5.55 1.63 8.316 C 72.169 48.278 70.577 48.278 68.98 48.273 z" style="stroke: none; stroke-width: 1; stroke-dasharray: none; stroke-linecap: butt; stroke-linejoin: miter; stroke-miterlimit: 10; fill: rgb(27,77,162); fill-rule: nonzero; opacity: 1;" transform=" matrix(1 0 0 1 0 0) " stroke-linecap="round" />
	<path d="M 83.427 21.576 C 75.524 8.637 61.271 0 45 0 S 14.476 8.637 6.573 21.576 H 83.427 z" style="stroke: none; stroke-width: 1; stroke-dasharray: none; stroke-linecap: butt; stroke-linejoin: miter; stroke-miterlimit: 10; fill: rgb(27,77,162); fill-rule: nonzero; opacity: 1;" transform=" matrix(1 0 0 1 0 0) " stroke-linecap="round" />
	<path d="M 6.573 68.424 C 14.476 81.362 28.727 89.999 44.998 90 h 0.005 c 16.27 -0.001 30.522 -8.638 38.425 -21.576 H 6.573 z" style="stroke: none; stroke-width: 1; stroke-dasharray: none; stroke-linecap: butt; stroke-linejoin: miter; stroke-miterlimit: 10; fill: rgb(244,169,41); fill-rule: nonzero; opacity: 1;" transform=" matrix(1 0 0 1 0 0) " stroke-linecap="round" />
</g>
</svg>