<svg xmlns="http://www.w3.org/2000/svg" xmlns:xlink="http://www.w3.org/1999/xlink" version="1.1" width="256" height="256" viewBox="0 0 256 256" xml:space="preserve">

<defs>
</defs>
<g style="stroke: none; stroke-width: 0; stroke-dasharray: none; stroke-linecap: butt; stroke-linejoin: miter; stroke-miterlimit: 10; fill: none; fill-rule: nonzero; opacity: 1;" transform="translate(1.4065934065934016 1.4065934065934016) scale(2.81 2.81)" >
	<path d="M 68.483 48.206 c 1.564 0.005 3.122 0.005 4.686 0.005 c -0.563 -2.708 -1.247 -5.398 -1.596 -8.143 C 70.396 42.719 69.535 45.502 68.483 48.206 z" style="stroke: none; stroke-width: 1; stroke-dasharray: none; stroke-linecap: butt; stroke-linejoin: miter; stroke-miterlimit: 10; fill: rgb(15,75,121); fill-rule: nonzero; opacity: 1;" transform=" matrix(1 0 0 1 0 0) " stroke-linecap="round" />
	<path d="M 0 45 L 0 45 c 0 24.853 20.147 45 45 45 h 0 c 24.853 0 45 -20.147 45 -45 v 0 C 90 20.147 69.853 0 45 0 h 0 C 20.147 0 0 20.147 0 45 z M 21.275 55.981 c -1.731 -6.324 -3.346 -12.68 -5.063 -19.009 c -1.931 -1.159 -4.086 -1.833 -6.212 -2.536 c 0.94 -0.484 2.015 -0.288 3.025 -0.307 c 2.313 0.06 4.63 -0.056 6.943 0.047 c 1.042 -0.005 1.936 0.861 2.08 1.871 c 0.726 3.518 1.391 7.05 2.103 10.577 c 0.177 0.8 0.302 1.619 0.456 2.429 c 1.824 -4.974 3.671 -9.944 5.514 -14.914 c 2.006 0.023 4.007 0.014 6.007 0 c -3.043 7.273 -5.882 14.63 -8.99 21.875 C 25.184 55.953 23.229 55.981 21.275 55.981 z M 34.891 55.986 c 1.08 -7.296 2.35 -14.565 3.485 -21.857 c 1.885 0.014 3.769 0.014 5.654 0 c -1.159 7.287 -2.378 14.565 -3.509 21.857 C 38.646 55.991 36.771 55.991 34.891 55.986 z M 52.648 56.144 c -2.899 0.302 -5.919 0.121 -8.637 -1 c 0.289 -1.629 0.531 -3.267 0.824 -4.895 c 2.35 1.215 5.077 1.824 7.697 1.242 c 0.889 -0.298 1.806 -1.028 1.726 -2.071 c -0.293 -1.242 -1.591 -1.773 -2.601 -2.336 c -1.959 -0.963 -4.067 -2.145 -4.947 -4.262 c -1.094 -2.676 0.354 -5.807 2.68 -7.32 c 3.378 -2.22 7.794 -2.154 11.531 -0.926 c -0.172 1.615 -0.442 3.215 -0.721 4.812 c -1.987 -0.954 -4.304 -1.377 -6.463 -0.824 c -1.019 0.242 -2.024 1.508 -1.177 2.457 c 1.74 1.782 4.481 2.187 6.119 4.127 c 1.899 1.857 1.829 4.984 0.535 7.157 C 57.845 54.599 55.212 55.8 52.648 56.144 z M 74.779 56.005 c -0.247 -1.094 -0.479 -2.192 -0.703 -3.295 c -2.415 0 -4.826 0.005 -7.236 -0.009 c -0.386 1.103 -0.786 2.206 -1.201 3.299 c -1.973 0 -3.946 0 -5.919 0.005 c 2.727 -6.547 5.482 -13.085 8.204 -19.637 c 0.377 -1.005 1.121 -2.099 2.299 -2.159 c 1.731 -0.121 3.471 -0.019 5.202 -0.051 c 1.55 7.278 3.048 14.56 4.574 21.838 C 78.26 56 76.519 56 74.779 56.005 z" style="stroke: none; stroke-width: 1; stroke-dasharray: none; stroke-linecap: butt; stroke-linejoin: miter; stroke-miterlimit: 10; fill: rgb(15,75,121); fill-rule: nonzero; opacity: 1;" transform=" matrix(1 0 0 1 0 0) " stroke-linecap="round" />
</g>
</svg>